<?xml version="1.0" encoding="UTF-8" standalone="no"?><svg xmlns="http://www.w3.org/2000/svg" xmlns:xlink="http://www.w3.org/1999/xlink" width="18px" height="20px" viewBox="0 0 18 20" version="1.1"><title>html [#124]</title><g id="Page-1" stroke="none" stroke-width="1" fill="none" fill-rule="evenodd"><g id="Dribbble-Light-Preview" transform="translate(-61.000000, -7639.000000)" fill="#000"><g id="icons" transform="translate(56.000000, 160.000000)"><path fill="#444" d="M19.435 7485h-8.623l.206 2h8.212c-.12 1.752-.484 5.464-.618 7.153l-4.613 1.298v.004l-.01.005-4.615-1.624-.316-3.836h2.262l.16 2.063 2.513.937H14l2.51-.9.258-3.1h-7.81c-.038-.401-.524-5.608-.608-6h11.288c-.063.66-.127 1.338-.202 2zM5 7479l1.638 18.148L13.99 7499l7.37-1.889L23 7479H5z" id="html-[#124]"/></g></g></g><metadata><rdf:RDF xmlns:rdf="http://www.w3.org/1999/02/22-rdf-syntax-ns#" xmlns:rdfs="http://www.w3.org/2000/01/rdf-schema#" xmlns:dc="http://purl.org/dc/elements/1.1/"><rdf:Description about="https://iconscout.com/legal#licenses" dc:title="html" dc:description="html" dc:publisher="Iconscout" dc:date="2017-09-15" dc:format="image/svg+xml" dc:language="en"><dc:creator><rdf:Bag><rdf:li>Alexandru Stoica</rdf:li></rdf:Bag></dc:creator></rdf:Description></rdf:RDF></metadata></svg>