<svg xmlns="http://www.w3.org/2000/svg" width="16" height="16" viewBox="0 0 16 16"><path fill="#444" d="m 9.0039062,0.984375 -0.017578,0.0175781 -7.9824219,0 0,14.9999999 0.5,0 c 3.0138954,0 7.482342,-2e-4 10.4960938,0 l 0,-1 0,-2.998047 -1,0 0,2.998047 c -2.7884549,-1.29e-4 -6.3000118,-9e-5 -8.9960938,0 l 0,-12.9999999 6.0175782,0 -0.00586,3 3.984375,0 0,-1 -0.0098,0 z M 13.181641,6.0371094 13.966797,6.8222656 13.443359,7.3457031 12.652344,6.5664062 z M 3,7.0039062 l 0,1 6,0 0,-1 z M 11.951172,7.28125 12.734375,8.0527344 9.1074219,11.679688 8.3222656,10.892578 z M 3,9.0039062 l 0,0.9999998 4,0 0,-0.9999998 z m 0,1.9999998 0,1 3,0 0,-1 z m 4.7578125,0.740235 0.4980469,0.496093 -0.7460938,0.25 z M 3,13.003906 l 0,1 2.0058594,0 0,-1 z" color="#000" font-family="sans-serif" font-weight="400" overflow="visible" style="text-indent:0;text-align:start;line-height:normal;text-transform:none;block-progression:tb"/></svg>